<?xml version="1.0" encoding="UTF-8"?>
<!DOCTYPE svg PUBLIC "-//W3C//DTD SVG 1.1//EN" "http://www.w3.org/Graphics/SVG/1.1/DTD/svg11.dtd">
<svg xmlns="http://www.w3.org/2000/svg" version="1.1" width="512px" height="512px" style="shape-rendering:geometricPrecision; text-rendering:geometricPrecision; image-rendering:optimizeQuality; fill-rule:evenodd; clip-rule:evenodd" xmlns:xlink="http://www.w3.org/1999/xlink">
<g><path style="opacity:0.97" fill="#000000" d="M 121.5,-0.5 C 123.167,-0.5 124.833,-0.5 126.5,-0.5C 137.619,0.768638 145.119,6.76864 149,17.5C 149.667,34.8333 149.667,52.1667 149,69.5C 142.692,84.4032 131.526,89.9032 115.5,86C 106.044,82.8756 100.544,76.3756 99,66.5C 98.3333,51.1667 98.3333,35.8333 99,20.5C 101.592,8.07037 109.092,1.07037 121.5,-0.5 Z"/></g>
<g><path style="opacity:0.97" fill="#000000" d="M 259.5,-0.5 C 261.167,-0.5 262.833,-0.5 264.5,-0.5C 276.034,0.853785 283.534,7.18712 287,18.5C 287.667,35.1667 287.667,51.8333 287,68.5C 281.19,84.158 270.024,89.9913 253.5,86C 244.904,83.0706 239.404,77.2373 237,68.5C 236.333,51.8333 236.333,35.1667 237,18.5C 240.441,7.21618 247.941,0.88285 259.5,-0.5 Z"/></g>
<g><path style="opacity:0.971" fill="#000000" d="M 398.5,-0.5 C 400.167,-0.5 401.833,-0.5 403.5,-0.5C 415.908,1.07037 423.408,8.07037 426,20.5C 426.667,35.8333 426.667,51.1667 426,66.5C 423.026,79.8247 414.693,86.4914 401,86.5C 388.348,87.1812 380.015,81.5145 376,69.5C 375.333,52.1667 375.333,34.8333 376,17.5C 379.854,6.80116 387.354,0.801157 398.5,-0.5 Z"/></g>
<g><path style="opacity:0.989" fill="#000000" d="M 44.5,46.5 C 59.8333,46.5 75.1667,46.5 90.5,46.5C 87.1052,64.1691 92.4385,78.3358 106.5,89C 124.834,97.9536 140.334,94.4536 153,78.5C 157.955,68.4235 159.788,57.7568 158.5,46.5C 181.833,46.5 205.167,46.5 228.5,46.5C 226.604,59.1861 229.104,70.8527 236,81.5C 253.667,98.8333 271.333,98.8333 289,81.5C 295.896,70.8527 298.396,59.1861 296.5,46.5C 319.833,46.5 343.167,46.5 366.5,46.5C 363.285,65.0645 369.285,79.5645 384.5,90C 405.028,98.0461 420.861,92.5461 432,73.5C 434.26,64.6626 435.093,55.6626 434.5,46.5C 445.172,46.3335 455.839,46.5002 466.5,47C 482.784,50.9503 492.617,61.1169 496,77.5C 496.5,110.498 496.667,143.498 496.5,176.5C 335.833,176.5 175.167,176.5 14.5,176.5C 14.034,141.793 14.534,107.126 16,72.5C 20.9521,58.7092 30.4521,50.0425 44.5,46.5 Z"/></g>
<g><path style="opacity:0.992" fill="#000000" d="M 452.5,511.5 C 321.167,511.5 189.833,511.5 58.5,511.5C 34.2031,505.032 19.7031,489.365 15,464.5C 14.5,375.167 14.3333,285.834 14.5,196.5C 175.167,196.5 335.833,196.5 496.5,196.5C 496.667,285.834 496.5,375.167 496,464.5C 491.297,489.365 476.797,505.032 452.5,511.5 Z M 357.5,251.5 C 376.354,251.189 387.02,260.356 389.5,279C 389.005,284.148 387.505,288.982 385,293.5C 336.194,343.306 287.028,392.806 237.5,442C 225.833,450.667 214.167,450.667 202.5,442C 177.667,417.167 152.833,392.333 128,367.5C 116.749,349.002 120.583,334.502 139.5,324C 148.842,321.151 157.509,322.484 165.5,328C 183.167,345.667 200.833,363.333 218.5,381C 219.5,381.667 220.5,381.667 221.5,381C 262.833,339.667 304.167,298.333 345.5,257C 349.284,254.471 353.284,252.638 357.5,251.5 Z"/></g>
</svg>
